<mxfile host="app.diagrams.net" agent="Mozilla/5.0 (Windows NT 10.0; Win64; x64) AppleWebKit/537.36 (KHTML, like Gecko) Chrome/135.0.0.0 Safari/537.36" version="27.0.4">
  <diagram id="C5RBs43oDa-KdzZeNtuy" name="Page-1">
    <mxGraphModel dx="1426" dy="795" grid="1" gridSize="10" guides="1" tooltips="1" connect="1" arrows="1" fold="1" page="1" pageScale="1" pageWidth="827" pageHeight="1169" math="0" shadow="0">
      <root>
        <mxCell id="WIyWlLk6GJQsqaUBKTNV-0" />
        <mxCell id="WIyWlLk6GJQsqaUBKTNV-1" parent="WIyWlLk6GJQsqaUBKTNV-0" />
        <mxCell id="AGCysIhZ8_IePrMO0AgM-7" value="" style="edgeStyle=orthogonalEdgeStyle;rounded=0;orthogonalLoop=1;jettySize=auto;html=1;" edge="1" parent="WIyWlLk6GJQsqaUBKTNV-1" source="WIyWlLk6GJQsqaUBKTNV-3" target="WIyWlLk6GJQsqaUBKTNV-12">
          <mxGeometry relative="1" as="geometry" />
        </mxCell>
        <mxCell id="WIyWlLk6GJQsqaUBKTNV-3" value="Bemeneti és kimeneti láb inicializálása" style="rounded=1;whiteSpace=wrap;html=1;fontSize=12;glass=0;strokeWidth=1;shadow=0;" parent="WIyWlLk6GJQsqaUBKTNV-1" vertex="1">
          <mxGeometry x="160" y="80" width="120" height="40" as="geometry" />
        </mxCell>
        <mxCell id="AGCysIhZ8_IePrMO0AgM-9" value="" style="edgeStyle=orthogonalEdgeStyle;rounded=0;orthogonalLoop=1;jettySize=auto;html=1;" edge="1" parent="WIyWlLk6GJQsqaUBKTNV-1" source="WIyWlLk6GJQsqaUBKTNV-11" target="AGCysIhZ8_IePrMO0AgM-2">
          <mxGeometry relative="1" as="geometry" />
        </mxCell>
        <mxCell id="WIyWlLk6GJQsqaUBKTNV-11" value="Várakozás a bemeneten érzékelt lefutóél interrupt megérkezésére" style="rounded=1;whiteSpace=wrap;html=1;fontSize=12;glass=0;strokeWidth=1;shadow=0;" parent="WIyWlLk6GJQsqaUBKTNV-1" vertex="1">
          <mxGeometry x="160" y="320" width="120" height="80" as="geometry" />
        </mxCell>
        <mxCell id="AGCysIhZ8_IePrMO0AgM-29" value="" style="edgeStyle=orthogonalEdgeStyle;rounded=0;orthogonalLoop=1;jettySize=auto;html=1;" edge="1" parent="WIyWlLk6GJQsqaUBKTNV-1" source="WIyWlLk6GJQsqaUBKTNV-12" target="AGCysIhZ8_IePrMO0AgM-28">
          <mxGeometry relative="1" as="geometry" />
        </mxCell>
        <mxCell id="WIyWlLk6GJQsqaUBKTNV-12" value="Alapértelmezett állapot beállítása" style="rounded=1;whiteSpace=wrap;html=1;fontSize=12;glass=0;strokeWidth=1;shadow=0;" parent="WIyWlLk6GJQsqaUBKTNV-1" vertex="1">
          <mxGeometry x="160" y="160" width="120" height="40" as="geometry" />
        </mxCell>
        <mxCell id="AGCysIhZ8_IePrMO0AgM-0" value="GPIO mérés" style="text;html=1;align=center;verticalAlign=middle;whiteSpace=wrap;rounded=0;fontSize=15;fontStyle=1" vertex="1" parent="WIyWlLk6GJQsqaUBKTNV-1">
          <mxGeometry x="175" y="10" width="90" height="30" as="geometry" />
        </mxCell>
        <mxCell id="AGCysIhZ8_IePrMO0AgM-10" value="" style="edgeStyle=orthogonalEdgeStyle;rounded=0;orthogonalLoop=1;jettySize=auto;html=1;" edge="1" parent="WIyWlLk6GJQsqaUBKTNV-1" source="AGCysIhZ8_IePrMO0AgM-2" target="AGCysIhZ8_IePrMO0AgM-3">
          <mxGeometry relative="1" as="geometry" />
        </mxCell>
        <mxCell id="AGCysIhZ8_IePrMO0AgM-2" value="Kimeneti láb alacsonyra állítása" style="rounded=1;whiteSpace=wrap;html=1;fontSize=12;glass=0;strokeWidth=1;shadow=0;" vertex="1" parent="WIyWlLk6GJQsqaUBKTNV-1">
          <mxGeometry x="160" y="440" width="120" height="40" as="geometry" />
        </mxCell>
        <mxCell id="AGCysIhZ8_IePrMO0AgM-11" value="" style="edgeStyle=orthogonalEdgeStyle;rounded=0;orthogonalLoop=1;jettySize=auto;html=1;" edge="1" parent="WIyWlLk6GJQsqaUBKTNV-1" source="AGCysIhZ8_IePrMO0AgM-3" target="AGCysIhZ8_IePrMO0AgM-4">
          <mxGeometry relative="1" as="geometry" />
        </mxCell>
        <mxCell id="AGCysIhZ8_IePrMO0AgM-3" value="10 ms várakozás" style="rounded=1;whiteSpace=wrap;html=1;fontSize=12;glass=0;strokeWidth=1;shadow=0;" vertex="1" parent="WIyWlLk6GJQsqaUBKTNV-1">
          <mxGeometry x="160" y="520" width="120" height="40" as="geometry" />
        </mxCell>
        <mxCell id="AGCysIhZ8_IePrMO0AgM-12" value="" style="edgeStyle=orthogonalEdgeStyle;rounded=0;orthogonalLoop=1;jettySize=auto;html=1;" edge="1" parent="WIyWlLk6GJQsqaUBKTNV-1" source="AGCysIhZ8_IePrMO0AgM-4" target="AGCysIhZ8_IePrMO0AgM-5">
          <mxGeometry relative="1" as="geometry" />
        </mxCell>
        <mxCell id="AGCysIhZ8_IePrMO0AgM-4" value="Kimeneti láb magasra állítása" style="rounded=1;whiteSpace=wrap;html=1;fontSize=12;glass=0;strokeWidth=1;shadow=0;" vertex="1" parent="WIyWlLk6GJQsqaUBKTNV-1">
          <mxGeometry x="160" y="600" width="120" height="40" as="geometry" />
        </mxCell>
        <mxCell id="AGCysIhZ8_IePrMO0AgM-6" style="edgeStyle=orthogonalEdgeStyle;rounded=0;orthogonalLoop=1;jettySize=auto;html=1;exitX=0;exitY=0.5;exitDx=0;exitDy=0;entryX=0;entryY=0.5;entryDx=0;entryDy=0;" edge="1" parent="WIyWlLk6GJQsqaUBKTNV-1" source="AGCysIhZ8_IePrMO0AgM-5" target="WIyWlLk6GJQsqaUBKTNV-11">
          <mxGeometry relative="1" as="geometry">
            <Array as="points">
              <mxPoint x="120" y="700" />
              <mxPoint x="120" y="360" />
            </Array>
          </mxGeometry>
        </mxCell>
        <mxCell id="AGCysIhZ8_IePrMO0AgM-5" value="Detektált lefutóél kiírása a konzolra" style="rounded=1;whiteSpace=wrap;html=1;fontSize=12;glass=0;strokeWidth=1;shadow=0;" vertex="1" parent="WIyWlLk6GJQsqaUBKTNV-1">
          <mxGeometry x="160" y="680" width="120" height="40" as="geometry" />
        </mxCell>
        <mxCell id="AGCysIhZ8_IePrMO0AgM-13" value="" style="edgeStyle=orthogonalEdgeStyle;rounded=0;orthogonalLoop=1;jettySize=auto;html=1;" edge="1" parent="WIyWlLk6GJQsqaUBKTNV-1" source="AGCysIhZ8_IePrMO0AgM-14" target="AGCysIhZ8_IePrMO0AgM-18">
          <mxGeometry relative="1" as="geometry" />
        </mxCell>
        <mxCell id="AGCysIhZ8_IePrMO0AgM-14" value="Soros port és kimeneti láb inicializálása" style="rounded=1;whiteSpace=wrap;html=1;fontSize=12;glass=0;strokeWidth=1;shadow=0;" vertex="1" parent="WIyWlLk6GJQsqaUBKTNV-1">
          <mxGeometry x="562" y="70" width="120" height="50" as="geometry" />
        </mxCell>
        <mxCell id="AGCysIhZ8_IePrMO0AgM-15" value="" style="edgeStyle=orthogonalEdgeStyle;rounded=0;orthogonalLoop=1;jettySize=auto;html=1;" edge="1" parent="WIyWlLk6GJQsqaUBKTNV-1" source="AGCysIhZ8_IePrMO0AgM-16" target="AGCysIhZ8_IePrMO0AgM-21">
          <mxGeometry relative="1" as="geometry" />
        </mxCell>
        <mxCell id="AGCysIhZ8_IePrMO0AgM-16" value="Várakozás a soros porton 0x01 üzenet megérkezésére" style="rounded=1;whiteSpace=wrap;html=1;fontSize=12;glass=0;strokeWidth=1;shadow=0;" vertex="1" parent="WIyWlLk6GJQsqaUBKTNV-1">
          <mxGeometry x="562" y="320" width="120" height="80" as="geometry" />
        </mxCell>
        <mxCell id="AGCysIhZ8_IePrMO0AgM-32" value="" style="edgeStyle=orthogonalEdgeStyle;rounded=0;orthogonalLoop=1;jettySize=auto;html=1;" edge="1" parent="WIyWlLk6GJQsqaUBKTNV-1" source="AGCysIhZ8_IePrMO0AgM-18" target="AGCysIhZ8_IePrMO0AgM-31">
          <mxGeometry relative="1" as="geometry" />
        </mxCell>
        <mxCell id="AGCysIhZ8_IePrMO0AgM-18" value="Alapértelmezett állapot beállítása" style="rounded=1;whiteSpace=wrap;html=1;fontSize=12;glass=0;strokeWidth=1;shadow=0;" vertex="1" parent="WIyWlLk6GJQsqaUBKTNV-1">
          <mxGeometry x="562" y="160" width="120" height="40" as="geometry" />
        </mxCell>
        <mxCell id="AGCysIhZ8_IePrMO0AgM-19" value="Soros porti mérés" style="text;html=1;align=center;verticalAlign=middle;whiteSpace=wrap;rounded=0;fontSize=15;fontStyle=1" vertex="1" parent="WIyWlLk6GJQsqaUBKTNV-1">
          <mxGeometry x="554.5" y="10" width="135" height="30" as="geometry" />
        </mxCell>
        <mxCell id="AGCysIhZ8_IePrMO0AgM-20" value="" style="edgeStyle=orthogonalEdgeStyle;rounded=0;orthogonalLoop=1;jettySize=auto;html=1;" edge="1" parent="WIyWlLk6GJQsqaUBKTNV-1" source="AGCysIhZ8_IePrMO0AgM-21" target="AGCysIhZ8_IePrMO0AgM-23">
          <mxGeometry relative="1" as="geometry" />
        </mxCell>
        <mxCell id="AGCysIhZ8_IePrMO0AgM-21" value="Kimeneti láb alacsonyra állítása" style="rounded=1;whiteSpace=wrap;html=1;fontSize=12;glass=0;strokeWidth=1;shadow=0;" vertex="1" parent="WIyWlLk6GJQsqaUBKTNV-1">
          <mxGeometry x="562" y="440" width="120" height="40" as="geometry" />
        </mxCell>
        <mxCell id="AGCysIhZ8_IePrMO0AgM-22" value="" style="edgeStyle=orthogonalEdgeStyle;rounded=0;orthogonalLoop=1;jettySize=auto;html=1;" edge="1" parent="WIyWlLk6GJQsqaUBKTNV-1" source="AGCysIhZ8_IePrMO0AgM-23" target="AGCysIhZ8_IePrMO0AgM-25">
          <mxGeometry relative="1" as="geometry" />
        </mxCell>
        <mxCell id="AGCysIhZ8_IePrMO0AgM-23" value="10 ms várakozás" style="rounded=1;whiteSpace=wrap;html=1;fontSize=12;glass=0;strokeWidth=1;shadow=0;" vertex="1" parent="WIyWlLk6GJQsqaUBKTNV-1">
          <mxGeometry x="562" y="520" width="120" height="40" as="geometry" />
        </mxCell>
        <mxCell id="AGCysIhZ8_IePrMO0AgM-24" value="" style="edgeStyle=orthogonalEdgeStyle;rounded=0;orthogonalLoop=1;jettySize=auto;html=1;" edge="1" parent="WIyWlLk6GJQsqaUBKTNV-1" source="AGCysIhZ8_IePrMO0AgM-25" target="AGCysIhZ8_IePrMO0AgM-27">
          <mxGeometry relative="1" as="geometry" />
        </mxCell>
        <mxCell id="AGCysIhZ8_IePrMO0AgM-25" value="Kimeneti láb magasra állítása" style="rounded=1;whiteSpace=wrap;html=1;fontSize=12;glass=0;strokeWidth=1;shadow=0;" vertex="1" parent="WIyWlLk6GJQsqaUBKTNV-1">
          <mxGeometry x="562" y="600" width="120" height="40" as="geometry" />
        </mxCell>
        <mxCell id="AGCysIhZ8_IePrMO0AgM-26" style="edgeStyle=orthogonalEdgeStyle;rounded=0;orthogonalLoop=1;jettySize=auto;html=1;exitX=0;exitY=0.5;exitDx=0;exitDy=0;entryX=0;entryY=0.5;entryDx=0;entryDy=0;" edge="1" parent="WIyWlLk6GJQsqaUBKTNV-1" source="AGCysIhZ8_IePrMO0AgM-27" target="AGCysIhZ8_IePrMO0AgM-16">
          <mxGeometry relative="1" as="geometry">
            <Array as="points">
              <mxPoint x="522" y="700" />
              <mxPoint x="522" y="360" />
            </Array>
          </mxGeometry>
        </mxCell>
        <mxCell id="AGCysIhZ8_IePrMO0AgM-27" value="Detektált lefutóél kiírása a konzolra" style="rounded=1;whiteSpace=wrap;html=1;fontSize=12;glass=0;strokeWidth=1;shadow=0;" vertex="1" parent="WIyWlLk6GJQsqaUBKTNV-1">
          <mxGeometry x="562" y="680" width="120" height="40" as="geometry" />
        </mxCell>
        <mxCell id="AGCysIhZ8_IePrMO0AgM-30" value="" style="edgeStyle=orthogonalEdgeStyle;rounded=0;orthogonalLoop=1;jettySize=auto;html=1;" edge="1" parent="WIyWlLk6GJQsqaUBKTNV-1" source="AGCysIhZ8_IePrMO0AgM-28" target="WIyWlLk6GJQsqaUBKTNV-11">
          <mxGeometry relative="1" as="geometry" />
        </mxCell>
        <mxCell id="AGCysIhZ8_IePrMO0AgM-28" value="Mérés indításának kiírása a konzolra" style="rounded=1;whiteSpace=wrap;html=1;fontSize=12;glass=0;strokeWidth=1;shadow=0;" vertex="1" parent="WIyWlLk6GJQsqaUBKTNV-1">
          <mxGeometry x="160" y="240" width="120" height="40" as="geometry" />
        </mxCell>
        <mxCell id="AGCysIhZ8_IePrMO0AgM-33" value="" style="edgeStyle=orthogonalEdgeStyle;rounded=0;orthogonalLoop=1;jettySize=auto;html=1;" edge="1" parent="WIyWlLk6GJQsqaUBKTNV-1" source="AGCysIhZ8_IePrMO0AgM-31" target="AGCysIhZ8_IePrMO0AgM-16">
          <mxGeometry relative="1" as="geometry" />
        </mxCell>
        <mxCell id="AGCysIhZ8_IePrMO0AgM-31" value="Mérés indításának kiírása a konzolra" style="rounded=1;whiteSpace=wrap;html=1;fontSize=12;glass=0;strokeWidth=1;shadow=0;" vertex="1" parent="WIyWlLk6GJQsqaUBKTNV-1">
          <mxGeometry x="562" y="240" width="120" height="40" as="geometry" />
        </mxCell>
      </root>
    </mxGraphModel>
  </diagram>
</mxfile>
